<?xml version="1.0" standalone="no"?>
<!DOCTYPE svg PUBLIC "-//W3C//DTD SVG 20010904//EN"
 "http://www.w3.org/TR/2001/REC-SVG-20010904/DTD/svg10.dtd">
<svg version="1.0" xmlns="http://www.w3.org/2000/svg"
 width="115.000000pt" height="114.000000pt" viewBox="0 0 115.000000 114.000000"
 preserveAspectRatio="xMidYMid meet">
<metadata>
Created by potrace 1.16, written by Peter Selinger 2001-2019
</metadata>
<g transform="translate(0.000000,114.000000) scale(0.100000,-0.100000)"
fill="#000000" stroke="none">
<path d="M180 1115 c-60 -19 -113 -65 -142 -122 -23 -47 -23 -55 -26 -391 -2
-229 1 -361 8 -398 15 -73 61 -132 129 -166 l55 -28 364 0 c248 0 377 4 403
12 51 15 114 69 142 122 22 40 22 48 22 426 0 375 -1 386 -22 425 -25 47 -64
85 -113 111 -32 17 -65 19 -405 21 -296 2 -379 -1 -415 -12z m535 -185 c85
-66 151 -158 185 -261 17 -49 21 -82 19 -149 -2 -72 0 -92 17 -121 11 -19 26
-49 32 -68 13 -37 16 -121 5 -121 -4 0 -22 14 -40 32 -44 43 -104 44 -183 3
-46 -24 -71 -29 -146 -33 -158 -7 -279 43 -407 170 -42 42 -77 81 -77 87 0 6
28 -5 63 -23 93 -51 164 -69 260 -64 46 2 99 11 120 21 l38 16 -74 65 c-83 73
-286 302 -322 366 -10 16 -5 13 126 -91 46 -36 109 -84 139 -105 l55 -39 -33
40 c-59 72 -182 234 -182 240 0 3 44 -33 98 -81 121 -109 322 -259 322 -242 0
2 4 29 10 60 13 83 -3 168 -49 261 -21 42 -36 77 -33 77 3 0 28 -18 57 -40z"/>
</g>
</svg>
